<mxfile host="app.diagrams.net" modified="2023-07-31T06:22:43.745Z" agent="Mozilla/5.0 (Windows NT 10.0; Win64; x64) AppleWebKit/537.36 (KHTML, like Gecko) Chrome/115.0.0.0 Safari/537.36" version="21.6.6" etag="Y6nTVd76AhPfgRlv_djL" type="github">
  <diagram name="Page-1" id="StD6gIO5jfRbCWX5JZ4G">
    <mxGraphModel>
      <root>
        <mxCell id="0" />
        <mxCell id="1" parent="0" />
      </root>
    </mxGraphModel>
  </diagram>
</mxfile>
